Coordinates
version=1
nRows=24
nColumns=24
inDegrees=yes

Units are S.I. units (second, meters, Newtons, ...)
Angles are in degrees.

endheader
time	pelvis_tilt	pelvis_list	pelvis_rotation	pelvis_tx	pelvis_ty	pelvis_tz	hip_flexion_r	hip_adduction_r	hip_rotation_r	knee_angle_r	ankle_angle_r	subtalar_angle_r	mtp_angle_r	hip_flexion_l	hip_adduction_l	hip_rotation_l	knee_angle_l	ankle_angle_l	subtalar_angle_l	mtp_angle_l	lumbar_extension	lumbar_bending	lumbar_rotation
      1.76000000	     12.92552958	      6.55250366	     -4.38765457	      0.42929806	      0.94498623	      0.26078840	      6.65306295	     -9.22996964	     -0.96452637	    -65.99460382	     17.74916378	      5.98189564	     51.17424943	     -3.86045082	     10.32701540	     -8.64172930	    -16.69669201	     21.02197950	      4.56180659	     24.42267216	    -28.37939922	     -8.09081932	      9.60233390
      1.76500000	     13.10179165	      6.53221829	     -4.38397159	      0.43578372	      0.94573702	      0.26099487	      7.13111413	     -9.20574129	     -1.03580013	    -65.53744501	     18.15667925	      5.99809478	     49.50857040	     -4.79254696	     10.32456971	     -8.82973982	    -16.11582319	     21.29883776	      5.05275453	     24.01155249	    -28.53910353	     -8.00848531	      9.50682777
      1.77000000	     13.21391462	      6.52436205	     -4.20916498	      0.44205074	      0.94638554	      0.26089608	      7.62733923	     -9.23712150	     -1.29791179	    -64.93495323	     18.41674609	      5.93117226	     49.41295893	     -5.56433317	     10.30350691	     -8.75208974	    -15.74087008	     21.48498574	      5.54639311	     24.00991874	    -28.66949326	     -7.85851330	      9.25290823
      1.77500000	     13.35100556	      6.50526105	     -4.06421223	      0.44822156	      0.94695745	      0.26096149	      8.08391725	     -9.23509803	     -1.51678533	    -64.28834873	     18.79417870	      5.97057853	     49.19551189	     -6.38052577	     10.27834074	     -8.74981784	    -15.31329002	     21.69432449	      5.98454782	     23.92601330	    -28.82653725	     -7.73094276	      9.07011303
      1.78000000	     13.39321855	      6.55147246	     -3.94767982	      0.45427477	      0.94732491	      0.26091945	      8.66951588	     -9.32364610	     -1.71249156	    -63.62025297	     19.04707098	      5.74523453	     49.07012433	     -7.09921530	     10.33969155	     -8.58190423	    -14.82025580	     21.72954306	      6.23699773	     23.83302139	    -28.88925121	     -7.65981892	      8.94942865
      1.78500000	     13.61560205	      6.59096579	     -3.88277130	      0.46054368	      0.94784687	      0.26088741	      9.00635160	     -9.42224031	     -1.86876132	    -62.86332752	     19.32494595	      5.72496771	     48.83920739	     -8.11012039	     10.43430038	     -8.31941637	    -14.15435687	     21.73961930	      6.34410364	     23.65700122	    -29.12110839	     -7.60119689	      8.73630279
      1.79000000	     13.80612648	      6.63438118	     -3.84096241	      0.46693403	      0.94826680	      0.26087903	      9.34002354	     -9.50621793	     -1.96694972	    -62.03514631	     19.79392652	      5.61797961	     48.65080519	     -9.11198268	     10.55174536	     -8.05836751	    -13.44925387	     21.72406579	      6.35074123	     23.46043633	    -29.30224164	     -7.55369603	      8.62837284
      1.79500000	     13.96855153	      6.57997507	     -3.68873414	      0.47324848	      0.94855252	      0.26078356	      9.65871786	     -9.49435532	     -2.20385407	    -61.11344782	     20.02738181	      5.80355359	     48.47918584	     -9.97094413	     10.51812605	     -7.83492018	    -12.99246766	     21.86158267	      6.44212823	     23.17456556	    -29.46570939	     -7.36095574	      8.46108371
      1.80000000	     14.00091117	      6.58234322	     -3.44792498	      0.47949998	      0.94857101	      0.26056275	     10.09798244	     -9.57975436	     -2.59082033	    -60.16152783	     20.44687374	      6.10659899	     47.14833463	    -10.61821857	     10.51488873	     -7.50279235	    -12.67819630	     22.17434801	      6.59071356	     21.46676063	    -29.50943899	     -7.18595026	      8.20757605
      1.80500000	     14.11020997	      6.57715492	     -3.34158942	      0.48565368	      0.94862234	      0.26072110	     10.48725843	     -9.58283367	     -2.76235770	    -59.20010255	     20.59256060	      6.07807414	     47.15727327	    -11.35125144	     10.51383612	     -7.32727672	    -12.31820017	     22.29258584	      6.70115580	     21.31015577	    -29.62482041	     -7.07748525	      8.01152380
      1.81000000	     14.28906654	      6.55707320	     -3.36888374	      0.49182200	      0.94870544	      0.26094269	     10.79730524	     -9.57740662	     -2.78178792	    -58.17527684	     20.74099542	      6.15077545	     47.11711959	    -12.16530427	     10.53315531	     -7.16099159	    -11.91805944	     22.37665009	      6.68700519	     21.04046125	    -29.80878213	     -7.01333487	      7.98887385
      1.81500000	     14.40527532	      6.50976408	     -3.34952725	      0.49804465	      0.94866578	      0.26117923	     11.12223807	     -9.51925896	     -2.85609778	    -57.02137165	     20.98387862	      6.23530993	     46.99463123	    -12.93357511	     10.51596597	     -6.90844563	    -11.49926316	     22.47676023	      6.66172987	     20.71804774	    -29.91986451	     -6.89476570	      7.97583015
      1.82000000	     14.59401092	      6.45948574	     -3.14108729	      0.50419178	      0.94869841	      0.26117128	     11.25093522	     -9.51129924	     -3.14274830	    -55.77324764	     21.22292225	      6.42830637	     46.72343635	    -13.73683447	     10.44886138	     -6.51727486	    -11.19024077	     22.65839933	      6.61806940	     20.31997040	    -30.14060741	     -6.69829922	      7.73280295
      1.82500000	     14.77624388	      6.40888696	     -3.00933693	      0.51047987	      0.94871014	      0.26110188	     11.38329188	     -9.51051491	     -3.39193665	    -54.46469845	     21.35291273	      6.55009821	     46.43233561	    -14.54573631	     10.40577290	     -6.17883498	    -10.86829451	     22.77282069	      6.53245728	     19.88301508	    -30.33016556	     -6.51179868	      7.59780126
      1.83000000	     14.88863062	      6.31921600	     -2.84582667	      0.51673920	      0.94852957	      0.26120883	     11.58216197	     -9.41941605	     -3.60465947	    -53.13812228	     21.31805745	      6.56057414	     46.26531366	    -15.17146666	     10.27418927	     -5.95793121	    -10.73240750	     23.09675329	      6.60356648	     19.66486762	    -30.45679001	     -6.29307300	      7.47027179
      1.83500000	     15.07369232	      6.27330364	     -2.73637586	      0.52300441	      0.94837629	      0.26138839	     11.64644691	     -9.37699937	     -3.77917124	    -51.67736787	     21.36032021	      6.56863093	     46.15735850	    -15.92761776	     10.21376802	     -5.70712096	    -10.49158119	     23.24745972	      6.60308660	     19.33522885	    -30.65831601	     -6.15061427	      7.35527421
      1.84000000	     15.28237495	      6.22156771	     -2.61301123	      0.52933758	      0.94817884	      0.26158822	     11.63008370	     -9.34201044	     -4.04129449	    -50.13563588	     21.39263828	      6.54674907	     46.00128300	    -16.74196804	     10.13901234	     -5.45351547	    -10.21632716	     23.38306041	      6.67138453	     18.69401206	    -30.87387203	     -5.99042662	      7.16556559
      1.84500000	     15.37633585	      6.13736587	     -2.39034875	      0.53541733	      0.94786935	      0.26178249	     11.71403893	     -9.23821628	     -4.27478297	    -48.55510422	     21.31491255	      6.57393504	     45.84459044	    -17.33234420	      9.97286849	     -5.08026461	    -10.12948112	     23.63910563	      6.71837153	     18.12882574	    -31.00209371	     -5.76173001	      6.96859169
      1.85000000	     15.52206347	      6.05462490	     -2.33877846	      0.54169945	      0.94750656	      0.26221045	     11.73331206	     -9.10682484	     -4.41240727	    -46.91830842	     21.17845985	      6.46073836	     45.77087973	    -17.98072568	      9.85627109	     -4.94047806	    -10.01364810	     23.93486855	      6.76941532	     17.60376047	    -31.15307838	     -5.62051036	      6.93751048
      1.85500000	     15.59809787	      5.96094589	     -2.31367335	      0.54799166	      0.94696165	      0.26285774	     11.81967347	     -8.92729925	     -4.41574944	    -45.26005264	     20.92482401	      6.36274452	     45.92815605	    -18.52047230	      9.70254152	     -5.02235363	     -9.97287624	     24.51831273	      7.18579472	     14.92815938	    -31.22119392	     -5.49525821	      6.92024700
      1.86000000	     15.73388405	      5.90962789	     -2.18878675	      0.55433573	      0.94643508	      0.26324559	     11.79341792	     -8.85526438	     -4.59685928	    -43.57676418	     20.61602889	      6.28812783	     45.88370882	    -19.16469641	      9.58058391	     -4.83273081	     -9.87085362	     24.80418347	      7.29579067	     14.85504817	    -31.36788121	     -5.35431069	      6.75191446
      1.86500000	     15.84926971	      5.86659776	     -2.08547645	      0.56060983	      0.94591905	      0.26370927	     11.75461646	     -8.76879315	     -4.71869032	    -41.81053263	     20.25419524	      6.13718695	     45.85092079	    -19.74832924	      9.46305076	     -4.67589045	     -9.83315088	     25.09737234	      7.42795839	     14.77644588	    -31.49879438	     -5.23858627	      6.63883709
      1.87000000	     15.94911634	      5.85381971	     -1.91603708	      0.56681643	      0.94532708	      0.26400995	     11.68888518	     -8.73536286	     -4.95527266	    -39.98370282	     19.91762185	      5.98735675	     45.89237145	    -20.28044949	      9.35569727	     -4.47074009	     -9.85056870	     25.37625502	      7.54997772	     14.57311014	    -31.61877884	     -5.10445118	      6.49901132
      1.87500000	     16.07182585	      5.78776476	     -1.81110089	      0.57314583	      0.94474646	      0.26461626	     11.54579207	     -8.59316136	     -5.06971318	    -38.07328708	     19.54001076	      5.75550134	     45.90049109	    -20.83456071	      9.19150067	     -4.39291070	     -9.88751246	     25.76363140	      7.76327456	     14.33452787	    -31.74838454	     -4.97703402	      6.37453583
